<svg width="24" height="25" viewBox="0 0 24 25" fill="none" xmlns="http://www.w3.org/2000/svg">
<path d="M16.34 10.2183C16.4361 10.1293 16.5136 10.0222 16.568 9.90336C16.6225 9.78449 16.6529 9.65612 16.6575 9.52557C16.6621 9.39502 16.6408 9.26484 16.5948 9.14248C16.5488 9.02012 16.4791 8.90796 16.3895 8.81241C16.2999 8.71687 16.1923 8.6398 16.0728 8.58562C15.9533 8.53144 15.8243 8.50119 15.693 8.49662C15.5618 8.49205 15.4309 8.51324 15.3079 8.55897C15.1848 8.60471 15.0721 8.6741 14.976 8.76318L12.05 11.4765L9.32201 8.56525C9.13948 8.37929 8.89102 8.27179 8.6298 8.26573C8.36859 8.25967 8.11536 8.35554 7.92431 8.53283C7.73327 8.71011 7.61957 8.95473 7.60755 9.21434C7.59553 9.47395 7.68615 9.72793 7.86001 9.92193L10.588 12.8322L7.66101 15.5456C7.56155 15.6338 7.48082 15.7408 7.42354 15.8605C7.36626 15.9801 7.3336 16.11 7.32747 16.2423C7.32135 16.3747 7.34188 16.507 7.38786 16.6313C7.43384 16.7557 7.50434 16.8697 7.59523 16.9666C7.68612 17.0635 7.79555 17.1413 7.91711 17.1956C8.03867 17.2498 8.16991 17.2794 8.3031 17.2824C8.4363 17.2855 8.56877 17.2621 8.69274 17.2136C8.81671 17.165 8.92968 17.0923 9.02501 16.9998L11.951 14.2874L14.679 17.1977C14.7671 17.2984 14.8747 17.3805 14.9953 17.439C15.116 17.4975 15.2472 17.5313 15.3813 17.5383C15.5153 17.5453 15.6494 17.5253 15.7756 17.4797C15.9017 17.434 16.0173 17.3636 16.1155 17.2725C16.2137 17.1815 16.2924 17.0717 16.3471 16.9497C16.4017 16.8278 16.4311 16.6961 16.4334 16.5626C16.4358 16.4292 16.4112 16.2966 16.3609 16.1727C16.3107 16.0489 16.2359 15.9365 16.141 15.842L13.414 12.9317L16.34 10.2183Z" fill="#B1EDD7"/>
<path fill-rule="evenodd" clip-rule="evenodd" d="M1 12.882C1 6.83956 5.925 1.94098 12 1.94098C18.075 1.94098 23 6.83956 23 12.882C23 18.9244 18.075 23.823 12 23.823C5.925 23.823 1 18.9244 1 12.882ZM12 21.8337C10.8181 21.8337 9.64778 21.6021 8.55585 21.1523C7.46392 20.7024 6.47177 20.043 5.63604 19.2118C4.80031 18.3805 4.13738 17.3937 3.68508 16.3076C3.23279 15.2216 3 14.0575 3 12.882C3 11.7064 3.23279 10.5424 3.68508 9.4563C4.13738 8.37022 4.80031 7.38339 5.63604 6.55215C6.47177 5.7209 7.46392 5.06153 8.55585 4.61166C9.64778 4.16179 10.8181 3.93025 12 3.93025C14.3869 3.93025 16.6761 4.87337 18.364 6.55215C20.0518 8.23092 21 10.5078 21 12.882C21 15.2561 20.0518 17.533 18.364 19.2118C16.6761 20.8906 14.3869 21.8337 12 21.8337Z" fill="#B1EDD7"/>
</svg>
