<svg width="43" height="41" viewBox="0 0 43 41" fill="none" xmlns="http://www.w3.org/2000/svg">
<path d="M4.75565 14.663L19.0226 3.56647L33.2895 14.663V32.1003C33.2895 32.9412 32.9555 33.7476 32.3609 34.3421C31.7663 34.9367 30.9599 35.2707 30.1191 35.2707H7.92607C7.08522 35.2707 6.27881 34.9367 5.68424 34.3421C5.08967 33.7476 4.75565 32.9412 4.75565 32.1003V14.663Z" stroke="#FF5310" stroke-width="3" stroke-linecap="round" stroke-linejoin="round"/>
<path d="M14.2669 35.2707V19.4186H23.7782V35.2707" stroke="#FF5310" stroke-width="3" stroke-linecap="round" stroke-linejoin="round"/>
<path d="M39.3694 21.3888C38.8646 20.8723 38.2654 20.4625 37.6058 20.1829C36.9462 19.9034 36.2393 19.7595 35.5253 19.7595C34.8114 19.7595 34.1044 19.9034 33.4448 20.1829C32.7853 20.4625 32.186 20.8723 31.6813 21.3888L30.6338 22.4603L29.5863 21.3888C28.5668 20.3459 27.1841 19.76 25.7423 19.76C24.3005 19.76 22.9178 20.3459 21.8983 21.3888C20.8788 22.4317 20.306 23.8462 20.306 25.3211C20.306 26.7959 20.8788 28.2104 21.8983 29.2533L22.9457 30.3248L30.6338 38.1894L38.3219 30.3248L39.3694 29.2533C39.8743 28.737 40.2749 28.124 40.5482 27.4493C40.8215 26.7746 40.9621 26.0514 40.9621 25.3211C40.9621 24.5907 40.8215 23.8675 40.5482 23.1928C40.2749 22.5181 39.8743 21.9051 39.3694 21.3888V21.3888Z" fill="#B1EDD7" stroke="#B1EDD7" stroke-width="2" stroke-linecap="round" stroke-linejoin="round"/>
</svg>
