<svg width="40" height="40" viewBox="0 0 40 40" fill="none" xmlns="http://www.w3.org/2000/svg">
<g clip-path="url(#clip0_1_68)">
<path d="M8.64997 21.3501C5.84306 17.0217 4.09057 12.0954 3.5333 6.96675C3.49165 6.50586 3.54643 6.04135 3.69414 5.60279C3.84185 5.16423 4.07925 4.76123 4.39125 4.41945C4.70324 4.07767 5.08298 3.8046 5.50629 3.61762C5.9296 3.43064 6.3872 3.33385 6.84997 3.33341H11.85C12.6588 3.32545 13.443 3.61188 14.0562 4.1393C14.6695 4.66672 15.0701 5.39916 15.1833 6.20008C15.3943 7.80019 15.7857 9.37129 16.35 10.8834C16.5742 11.48 16.6227 12.1283 16.4898 12.7515C16.3569 13.3748 16.0481 13.9469 15.6 14.4001L13.4833 16.5167M17.8 22.1834C19.4914 23.8763 21.403 25.3339 23.4833 26.5167L25.6 24.4001C26.0531 23.952 26.6252 23.6432 27.2485 23.5102C27.8718 23.3773 28.5201 23.4258 29.1166 23.6501C30.6288 24.2143 32.1999 24.6057 33.8 24.8167C34.6009 24.93 35.3333 25.3305 35.8608 25.9438C36.3882 26.5571 36.6746 27.3412 36.6666 28.1501V33.1501C36.6685 33.6142 36.5734 34.0737 36.3875 34.499C36.2015 34.9243 35.9288 35.3061 35.5868 35.6199C35.2447 35.9336 34.8409 36.1725 34.4012 36.3213C33.9615 36.47 33.4956 36.5252 33.0333 36.4834C27.9047 35.9261 22.9783 34.1737 18.65 31.3667C16.6421 30.0918 14.7808 28.5995 13.1 26.9167L17.8 22.1834Z" stroke="#FF5310" stroke-width="3" stroke-linecap="round" stroke-linejoin="round"/>
<path d="M38.3333 1.66669L1.66663 38.3334" stroke="#B1EDD7" stroke-width="4" stroke-linecap="round" stroke-linejoin="round"/>
</g>
<defs>
<clipPath id="clip0_1_68">
<rect width="40" height="40" fill="white"/>
</clipPath>
</defs>
</svg>
