<svg width="47" height="46" viewBox="0 0 47 46" fill="none" xmlns="http://www.w3.org/2000/svg">
<g clip-path="url(#clip0_1_71)">
<path d="M24.5757 45.6331V42.5617C24.5757 40.9325 24.934 39.37 25.5717 38.218C26.2095 37.066 27.0744 36.4188 27.9763 36.4188H34.7774C35.6793 36.4188 36.5442 37.066 37.1819 38.218C37.8196 39.37 38.1779 40.9325 38.1779 42.5617V45.6331" stroke="#FF5310" stroke-width="3" stroke-linecap="round" stroke-linejoin="round"/>
<path d="M31.3726 34.302C28.3434 34.302 25.8878 31.8464 25.8878 28.8173C25.8878 25.7882 28.3434 23.3326 31.3726 23.3326C34.4017 23.3326 36.8573 25.7882 36.8573 28.8173C36.8573 31.8464 34.4017 34.302 31.3726 34.302Z" stroke="#FF5310" stroke-width="3" stroke-linecap="round" stroke-linejoin="round"/>
</g>
<path d="M41.6164 13.4376C41.6164 13.9128 41.419 14.3685 41.0675 14.7045C40.7161 15.0405 40.2394 15.2293 39.7424 15.2293H28.498L24.7499 18.8127V4.47924C24.7499 4.00406 24.9474 3.54834 25.2988 3.21233C25.6503 2.87633 26.127 2.68756 26.624 2.68756H39.7424C40.2394 2.68756 40.7161 2.87633 41.0675 3.21233C41.419 3.54834 41.6164 4.00406 41.6164 4.47924V13.4376Z" fill="#B1EDD7" stroke="#B1EDD7" stroke-width="2" stroke-linecap="round" stroke-linejoin="round"/>
<g clip-path="url(#clip1_1_71)">
<path d="M22.3777 38.1734V35.1019C22.3777 33.4727 22.0194 31.9103 21.3817 30.7583C20.744 29.6062 19.879 28.959 18.9772 28.959H12.1761C11.2742 28.959 10.4093 29.6062 9.77157 30.7583C9.13384 31.9103 8.77557 33.4727 8.77557 35.1019V38.1734" stroke="#FF5310" stroke-width="3" stroke-linecap="round" stroke-linejoin="round"/>
<path d="M15.5809 26.8423C18.6101 26.8423 21.0656 24.3867 21.0656 21.3576C21.0656 18.3285 18.6101 15.8729 15.5809 15.8729C12.5518 15.8729 10.0962 18.3285 10.0962 21.3576C10.0962 24.3867 12.5518 26.8423 15.5809 26.8423Z" stroke="#FF5310" stroke-width="3" stroke-linecap="round" stroke-linejoin="round"/>
</g>
<defs>
<clipPath id="clip0_1_71">
<rect width="27.6474" height="27.6473" fill="white" transform="matrix(-1 0 0 1 46.9535 17.9901)"/>
</clipPath>
<clipPath id="clip1_1_71">
<rect width="27.6473" height="27.6473" fill="white" transform="translate(0 10.5304)"/>
</clipPath>
</defs>
</svg>
